<svg width="10" height="10" viewBox="0 0 10 10" fill="none" xmlns="http://www.w3.org/2000/svg">
<g clip-path="url(#clip0)">
<path d="M5.27442 7.58631L9.88692 2.96102C10.038 2.80948 10.0377 2.56413 9.88614 2.41284C9.73459 2.26167 9.48911 2.26206 9.33795 2.41362L4.99998 6.7636L0.662031 2.41346C0.51086 2.26192 0.265529 2.26153 0.113967 2.41268C0.0379906 2.48852 1.90735e-06 2.58788 1.90735e-06 2.68723C1.90735e-06 2.78633 0.0377369 2.8853 0.113186 2.961L4.72557 7.58631C4.79819 7.6593 4.89701 7.70026 4.99998 7.70026C5.10295 7.70026 5.20166 7.65918 5.27442 7.58631Z" fill="#2F2D2D"/>
</g>
<defs>
<clipPath id="clip0">
<rect width="10" height="10" fill="white" transform="translate(10) rotate(90)"/>
</clipPath>
</defs>
</svg>
